<svg 
 xmlns="http://www.w3.org/2000/svg"
 xmlns:xlink="http://www.w3.org/1999/xlink"
 width="990px" height="990px">
<path fill-rule="evenodd"  fill="#000"
 d="M838.953,840.908 L429.896,978.440 C314.031,1017.395 188.072,954.819 149.113,838.949 L11.573,429.871 C-27.387,313.998 35.183,188.036 151.047,149.081 L560.105,11.550 C675.971,-27.407 801.928,35.169 840.887,151.042 L978.428,560.120 C1017.387,675.991 954.819,801.953 838.953,840.908 ZM976.883,560.640 L839.342,151.562 C800.669,36.542 675.637,-25.573 560.624,13.096 L151.568,150.626 C36.554,189.296 -25.554,314.331 13.118,429.351 L150.659,838.429 C189.331,953.448 314.363,1015.562 429.377,976.893 L838.433,839.363 C953.446,800.693 1015.554,675.659 976.883,560.640 ZM835.437,772.327 L482.239,933.912 C433.757,956.093 379.539,958.065 329.572,939.465 C279.606,920.864 239.873,883.919 217.691,835.434 L56.100,482.218 C33.919,433.728 31.944,379.511 50.542,329.544 C69.141,279.576 106.084,239.843 154.565,217.662 L507.760,56.078 C556.243,33.897 610.462,31.925 660.428,50.526 C710.394,69.127 750.128,106.072 772.310,154.556 L933.901,507.773 C936.854,514.223 939.434,520.758 941.646,527.339 C973.763,622.865 929.069,729.492 835.437,772.327 ZM940.100,527.858 C937.903,521.324 935.349,514.856 932.420,508.450 L770.826,155.235 C748.826,107.147 709.417,70.502 659.859,52.055 C610.300,33.606 556.525,35.561 508.441,57.560 L155.243,219.145 C107.158,241.144 70.516,280.553 52.072,330.114 C36.098,373.031 35.425,419.114 49.818,461.923 C52.046,468.548 54.633,475.094 57.582,481.540 L219.174,834.755 C241.173,882.843 280.583,919.488 330.142,937.936 C379.698,956.384 433.475,954.429 481.561,932.430 L834.757,770.845 C927.619,728.361 971.946,622.596 940.100,527.858 ZM825.842,711.272 L524.910,889.129 C439.598,939.551 329.169,911.160 278.745,825.843 L100.882,524.892 C50.466,439.576 78.845,329.141 164.157,278.718 L465.090,100.861 C506.417,76.435 554.784,69.567 601.276,81.520 C647.772,93.473 686.829,122.819 711.256,164.147 L889.119,465.098 C895.643,476.138 900.849,487.602 904.782,499.298 C931.241,577.995 900.115,667.374 825.842,711.272 ZM887.715,465.929 L709.851,164.977 C659.884,80.433 550.459,52.300 465.920,102.267 L164.987,280.123 C91.393,323.620 60.548,412.196 86.765,490.171 C90.663,501.767 95.818,513.117 102.287,524.062 L280.149,825.013 C304.354,865.968 343.056,895.046 389.129,906.890 C435.202,918.735 483.129,911.928 524.080,887.725 L825.013,709.867 C909.552,659.902 937.682,550.470 887.715,465.929 ZM558.897,845.026 C524.187,870.789 481.521,881.492 438.760,875.165 C395.998,868.837 358.259,846.235 332.496,811.521 L144.986,558.881 C119.221,524.170 108.516,481.502 114.844,438.739 C121.169,395.975 143.769,358.236 178.481,332.472 L431.105,144.964 C465.813,119.202 508.481,108.498 551.240,114.827 C594.002,121.155 631.741,143.757 657.505,178.469 L845.014,431.110 C855.385,445.083 863.169,460.208 868.438,475.877 C890.184,540.556 869.202,614.705 811.521,657.519 L558.897,845.026 ZM873.543,551.014 C879.806,508.682 869.207,466.443 843.705,432.081 L656.195,179.441 C630.692,145.078 593.333,122.704 551.003,116.439 C508.673,110.176 466.437,120.770 432.075,146.275 L179.452,333.782 C122.358,376.161 101.582,449.571 123.109,513.593 C128.325,529.109 136.026,544.072 146.296,557.909 L333.805,810.551 C359.310,844.914 396.667,867.287 438.998,873.551 C481.329,879.815 523.565,869.219 557.925,843.716 L810.550,656.208 C844.909,630.705 867.282,593.346 873.543,551.014 ZM793.651,610.746 L585.175,802.346 C556.515,828.686 519.312,842.289 480.421,840.647 C441.529,839.005 405.604,822.316 379.264,793.653 L187.664,585.161 C161.323,556.499 147.718,519.296 149.362,480.402 C151.002,441.510 167.689,405.584 196.349,379.243 L404.825,187.643 C463.990,133.268 556.361,137.168 610.737,196.338 L802.337,404.828 C816.558,420.303 826.797,438.056 833.098,456.801 C850.893,509.725 837.342,570.592 793.651,610.746 ZM801.136,405.932 L609.534,197.441 C555.769,138.935 464.431,135.078 405.928,188.844 L197.452,380.444 C169.114,406.490 152.612,442.014 150.991,480.471 C150.234,498.421 152.761,516.013 158.319,532.545 C164.670,551.435 174.976,568.945 188.864,584.058 L380.465,792.549 C406.511,820.892 442.034,837.394 480.490,839.017 C518.946,840.641 555.732,827.192 584.072,801.146 L792.548,609.546 C851.051,555.779 854.899,464.439 801.136,405.932 ZM604.688,761.667 C581.498,787.957 549.458,803.641 514.472,805.833 C479.485,808.023 445.739,796.457 419.450,773.265 L228.343,604.677 C202.053,581.485 186.367,549.445 184.176,514.457 C181.984,479.469 193.549,445.722 216.738,419.432 L385.313,228.323 C408.502,202.034 440.541,186.348 475.528,184.158 C510.515,181.969 544.261,193.534 570.550,216.726 L761.657,385.314 C779.169,400.761 791.976,420.135 799.224,441.692 C802.857,452.497 805.093,463.851 805.826,475.533 C808.016,510.522 796.453,544.269 773.263,570.558 L604.688,761.667 ZM804.196,475.636 C802.035,441.083 786.540,409.439 760.580,386.537 L569.472,217.948 C543.509,195.044 510.183,183.623 475.631,185.786 C441.079,187.949 409.437,203.439 386.536,229.400 L217.962,420.511 C195.061,446.472 183.639,479.801 185.804,514.355 C186.527,525.891 188.736,537.106 192.323,547.777 C199.481,569.066 212.127,588.197 229.422,603.454 L420.529,772.042 C446.491,794.946 479.817,806.368 514.370,804.203 C548.923,802.041 580.563,786.551 603.464,760.589 L772.040,569.479 C794.940,543.517 806.362,510.189 804.196,475.636 ZM618.331,723.414 C600.035,749.145 572.815,766.210 541.683,771.465 C510.553,776.721 479.238,769.539 453.509,751.241 L266.595,618.321 C240.864,600.023 223.801,572.801 218.543,541.670 C213.285,510.538 220.466,479.222 238.763,453.492 L371.670,266.576 C389.966,240.845 417.186,223.781 448.317,218.524 C479.447,213.269 510.762,220.451 536.492,238.749 L723.405,371.669 C743.969,386.293 758.999,406.618 766.888,430.083 C768.871,435.979 770.403,442.068 771.458,448.321 C776.714,479.453 769.533,510.768 751.237,536.499 L618.331,723.414 ZM769.849,448.593 C764.665,417.886 747.835,391.043 722.461,372.998 L535.548,240.078 C510.172,222.033 479.290,214.950 448.590,220.133 C417.887,225.316 391.042,242.145 372.999,267.520 L240.091,454.436 C217.633,486.021 213.192,525.075 224.689,559.273 C232.261,581.791 246.743,602.203 267.539,616.993 L454.452,749.912 C479.829,767.957 510.710,775.040 541.412,769.858 C572.114,764.674 598.959,747.844 617.002,722.470 L749.909,535.554 C767.952,510.178 775.033,479.295 769.849,448.593 ZM626.948,687.884 C598.118,739.019 533.063,757.162 481.928,728.329 L302.123,626.940 C250.989,598.107 232.844,533.048 261.675,481.914 L363.052,302.107 C391.883,250.972 456.939,232.828 508.072,261.661 L687.876,363.050 C711.683,376.474 728.344,397.757 736.436,421.824 C745.725,449.452 743.733,480.750 728.327,508.077 L626.948,687.884 ZM687.077,364.470 L507.273,263.081 C456.921,234.690 392.863,252.556 364.473,302.907 L263.096,482.714 C247.925,509.620 245.965,540.444 255.109,567.645 C263.080,591.348 279.479,612.300 302.924,625.520 L482.728,726.909 C507.120,740.662 535.405,744.093 562.377,736.572 C589.348,729.050 611.776,711.474 625.526,687.083 L726.905,507.276 C755.293,456.925 737.426,392.863 687.077,364.470 ZM631.321,655.264 C610.310,703.787 553.739,726.166 505.217,705.151 L334.742,631.316 C311.238,621.136 293.104,602.412 283.681,578.593 C274.254,554.776 274.674,528.710 284.854,505.205 L358.678,334.726 C368.857,311.222 387.580,293.087 411.399,283.664 C435.216,274.242 461.278,274.659 484.783,284.839 L655.259,358.673 C681.186,369.904 699.651,391.289 708.018,416.171 C715.308,437.855 714.930,462.192 705.147,484.785 L631.321,655.264 ZM654.610,360.170 L484.134,286.336 C461.030,276.330 435.412,275.919 411.999,285.181 C388.586,294.443 370.181,312.269 360.175,335.375 L286.350,505.852 C276.732,528.060 276.363,551.988 283.528,573.300 C291.753,597.762 309.901,618.780 335.391,629.820 L505.865,703.655 C553.562,724.312 609.171,702.313 629.825,654.616 L703.652,484.138 C724.304,436.439 702.305,380.828 654.610,360.170 ZM632.171,625.647 C617.915,671.099 569.340,696.476 523.890,682.216 L364.359,632.168 C318.909,617.909 293.530,569.331 307.787,523.879 L357.829,364.343 C372.085,318.892 420.660,293.514 466.109,307.774 L625.642,357.822 C647.659,364.730 665.668,379.798 676.354,400.250 C678.499,404.357 680.297,408.581 681.746,412.890 C687.512,430.040 687.733,448.514 682.212,466.112 L632.171,625.647 ZM674.908,401.007 C664.426,380.939 646.755,366.157 625.154,359.379 L465.621,309.329 C421.030,295.341 373.372,320.239 359.384,364.832 L309.343,524.368 C303.791,542.068 304.367,560.263 309.871,576.634 C318.232,601.501 337.956,622.175 364.847,630.612 L524.379,680.661 C545.979,687.438 568.927,685.396 588.992,674.913 C609.058,664.430 623.840,646.761 630.616,625.158 L680.657,465.622 C687.432,444.023 685.393,421.075 674.908,401.007 ZM630.148,599.050 C621.655,641.117 580.521,668.429 538.455,659.934 L390.955,630.145 C370.577,626.029 353.022,614.225 341.522,596.905 C330.022,579.586 325.954,558.825 330.069,538.446 L359.852,390.940 C363.967,370.562 375.770,353.006 393.089,341.507 C410.407,330.008 431.168,325.941 451.545,330.056 L599.046,359.845 C619.423,363.961 636.979,375.766 648.479,393.085 C652.318,398.868 655.329,405.037 657.484,411.445 C661.782,424.229 662.673,437.969 659.931,451.545 L630.148,599.050 ZM647.120,393.987 C635.860,377.031 618.673,365.474 598.723,361.445 L451.222,331.655 C431.272,327.626 410.947,331.607 393.991,342.865 C377.035,354.124 365.479,371.313 361.451,391.263 L331.668,538.768 C328.985,552.058 329.856,565.513 334.064,578.028 C336.173,584.304 339.121,590.340 342.880,596.004 C354.140,612.959 371.327,624.517 391.278,628.546 L538.777,658.336 C579.963,666.653 620.233,639.913 628.551,598.726 L658.333,451.221 C662.362,431.270 658.379,410.946 647.120,393.987 ZM625.837,575.424 C624.069,594.073 615.144,610.918 600.709,622.854 C586.272,634.790 568.051,640.389 549.403,638.620 L414.580,625.834 C376.084,622.184 347.732,587.892 351.383,549.395 L364.164,414.566 C367.814,376.069 402.101,347.719 440.597,351.370 L575.419,364.157 C603.846,366.852 626.742,386.256 635.303,411.724 C638.337,420.745 639.572,430.524 638.619,440.596 L625.837,575.424 ZM575.266,365.780 L440.443,352.993 C402.842,349.428 369.352,377.118 365.787,414.720 L353.006,549.550 C352.073,559.383 353.280,568.940 356.243,577.750 C364.607,602.626 386.966,621.577 414.734,624.211 L549.557,636.997 C587.158,640.563 620.650,612.872 624.213,575.270 L636.994,440.442 C640.560,402.840 612.867,369.346 575.266,365.780 ZM557.207,618.514 L435.327,619.753 C400.481,620.106 371.845,592.042 371.489,557.200 L370.245,435.315 C369.890,400.469 397.949,371.831 432.793,371.477 L554.673,370.237 C582.721,369.952 606.748,388.079 615.239,413.335 C617.297,419.455 618.443,425.993 618.512,432.790 L619.755,554.675 C619.928,571.555 613.517,587.492 601.703,599.550 C589.888,611.608 574.087,618.342 557.207,618.514 ZM616.881,432.808 C616.531,398.856 588.636,371.524 554.691,371.868 L432.811,373.107 C398.865,373.453 371.529,401.352 371.876,435.298 L373.119,557.182 C373.187,563.803 374.304,570.176 376.308,576.137 C384.581,600.743 407.985,618.400 435.311,618.122 L557.190,616.883 C573.634,616.716 589.029,610.154 600.538,598.408 C612.046,586.662 618.293,571.136 618.124,554.692 L616.881,432.808 ZM562.308,599.783 L453.335,612.357 C438.221,614.102 423.332,609.856 411.412,600.401 C399.491,590.948 391.965,577.416 390.219,562.302 L377.640,453.324 C374.040,422.122 396.492,393.809 427.692,390.208 L536.665,377.632 C551.780,375.889 566.668,380.136 578.590,389.589 C587.322,396.515 593.696,405.630 597.166,415.951 C598.434,419.719 599.313,423.646 599.781,427.688 L612.360,536.667 C615.960,567.868 593.508,596.182 562.308,599.783 ZM610.739,536.854 L598.160,427.876 C596.464,413.193 589.158,400.050 577.575,390.867 C565.998,381.683 551.535,377.559 536.854,379.253 L427.879,391.829 C397.573,395.326 375.763,422.828 379.262,453.136 L391.840,562.115 C392.293,566.037 393.148,569.816 394.358,573.417 C402.504,597.645 426.762,613.782 453.148,610.736 L562.122,598.162 C592.427,594.664 614.236,567.161 610.739,536.854 ZM565.120,582.535 L468.765,604.042 C455.380,607.030 441.633,604.627 430.055,597.274 C418.478,589.922 410.452,578.507 407.468,565.115 L385.957,468.754 C382.968,455.369 385.371,441.621 392.723,430.043 C400.074,418.466 411.496,410.443 424.881,407.456 L521.236,385.947 C534.620,382.961 548.368,385.364 559.946,392.716 C569.971,399.083 577.332,408.501 581.064,419.603 C581.643,421.323 582.132,423.080 582.532,424.876 L604.045,521.235 C610.212,548.868 592.751,576.368 565.120,582.535 ZM602.454,521.591 L580.941,425.231 C578.050,412.269 570.281,401.212 559.071,394.093 C547.862,386.974 534.551,384.647 521.591,387.539 L425.236,409.047 C412.275,411.940 401.218,419.708 394.100,430.918 C386.982,442.128 384.655,455.439 387.548,468.399 L409.058,564.759 C409.447,566.496 409.922,568.200 410.481,569.862 C414.096,580.614 421.221,589.731 430.929,595.897 C442.139,603.017 455.451,605.344 468.409,602.451 L564.766,580.942 C591.518,574.971 608.424,548.346 602.454,521.591 ZM566.023,566.830 L481.802,595.146 C457.607,603.281 431.307,590.214 423.171,566.019 L394.853,481.792 C386.718,457.597 399.783,431.295 423.977,423.160 L508.198,394.844 C532.392,386.710 558.693,399.777 566.829,423.972 L595.148,508.198 C603.282,532.394 590.216,558.696 566.023,566.830 ZM593.601,508.718 L565.283,424.491 C557.434,401.148 532.060,388.542 508.718,396.390 L424.497,424.707 C401.155,432.554 388.550,457.930 396.399,481.273 L424.718,565.499 C432.566,588.842 457.940,601.448 481.283,593.600 L565.504,565.284 C588.845,557.436 601.450,532.060 593.601,508.718 ZM565.364,552.684 L492.642,585.953 C471.711,595.529 446.893,586.289 437.316,565.357 L404.046,492.633 C394.479,471.706 403.706,446.882 424.638,437.306 L497.358,404.037 C518.289,394.462 543.108,403.701 552.685,424.633 L585.954,497.357 C586.575,498.715 587.123,500.096 587.593,501.495 C590.627,510.521 590.484,520.237 587.117,529.286 C583.227,539.736 575.502,548.045 565.364,552.684 ZM584.471,498.035 L551.201,425.311 C541.999,405.197 518.149,396.318 498.036,405.520 L425.316,438.790 C406.501,447.397 397.519,468.827 403.973,488.023 C404.417,489.346 404.935,490.658 405.528,491.955 L438.799,564.679 C443.257,574.423 451.242,581.848 461.283,585.585 C471.325,589.324 482.221,588.927 491.963,584.471 L564.684,551.202 C574.427,546.743 581.852,538.758 585.588,528.717 C589.326,518.674 588.924,507.776 584.471,498.035 ZM563.447,540.083 L501.489,576.701 C483.615,587.265 460.481,581.317 449.918,563.444 L413.297,501.480 C402.737,483.606 408.679,460.471 426.552,449.908 L488.513,413.288 C497.171,408.173 507.302,406.733 517.043,409.237 C526.783,411.740 534.966,417.888 540.083,426.547 L576.704,488.510 C578.069,490.822 579.161,493.225 579.984,495.674 C585.530,512.161 579.008,530.885 563.447,540.083 ZM575.299,489.341 L538.678,427.377 C533.784,419.093 525.956,413.212 516.637,410.817 C507.318,408.421 497.625,409.798 489.343,414.693 L427.383,451.313 C419.100,456.207 413.220,464.035 410.825,473.353 C409.069,480.181 409.339,487.210 411.534,493.737 C412.335,496.121 413.393,498.435 414.702,500.650 L451.322,562.614 C461.427,579.713 483.560,585.403 500.658,575.297 L562.619,538.677 C579.717,528.571 585.413,506.436 575.299,489.341 ZM560.556,528.977 L508.542,567.584 C501.256,572.991 492.301,575.238 483.326,573.910 C474.351,572.582 466.429,567.837 461.022,560.551 L422.415,508.534 C417.010,501.250 414.762,492.293 416.089,483.318 C417.417,474.342 422.160,466.421 429.446,461.013 L481.459,422.406 C488.743,416.999 497.699,414.752 506.674,416.080 C515.650,417.409 523.571,422.153 528.978,429.439 L567.586,481.455 C569.763,484.389 571.395,487.562 572.500,490.852 C577.065,504.427 572.661,519.991 560.556,528.977 ZM566.276,482.427 L527.669,430.410 C522.520,423.475 514.979,418.959 506.436,417.694 C497.891,416.430 489.366,418.568 482.431,423.717 L430.418,462.323 C423.482,467.471 418.966,475.012 417.702,483.556 C416.945,488.680 417.410,493.797 419.014,498.568 C420.086,501.754 421.664,504.785 423.726,507.563 L462.332,559.579 C467.480,566.515 475.020,571.032 483.565,572.296 C492.109,573.561 500.635,571.422 507.570,566.273 L559.584,527.667 C573.900,517.041 576.906,496.745 566.276,482.427 ZM556.928,519.303 L514.005,558.752 C501.561,570.189 482.132,569.369 470.695,556.924 L431.246,513.998 C425.706,507.970 422.844,500.143 423.190,491.964 C423.533,483.782 427.044,476.227 433.073,470.686 L475.997,431.238 C482.024,425.696 489.849,422.836 498.029,423.181 C506.210,423.527 513.766,427.037 519.306,433.067 L558.755,475.992 C561.746,479.247 563.899,482.981 565.225,486.923 C568.968,498.055 566.118,510.859 556.928,519.303 ZM557.554,477.095 L518.105,434.171 C512.860,428.463 505.705,425.138 497.961,424.811 C490.215,424.484 482.807,427.193 477.100,432.438 L434.175,471.887 C428.469,477.133 425.146,484.287 424.819,492.031 C424.667,495.647 425.175,499.190 426.294,502.519 C427.574,506.324 429.649,509.850 432.446,512.894 L471.895,555.821 C482.723,567.604 501.119,568.380 512.901,557.552 L555.826,518.103 C567.606,507.275 568.383,488.880 557.554,477.095 ZM518.070,550.329 C513.180,555.871 506.426,559.178 499.050,559.640 C491.674,560.102 484.559,557.664 479.017,552.774 L439.670,518.063 C434.127,513.175 430.822,506.420 430.358,499.042 C429.897,491.667 432.334,484.552 437.223,479.009 L471.931,439.661 C476.820,434.119 483.575,430.812 490.950,430.350 C498.327,429.888 505.441,432.327 510.984,437.215 L550.331,471.927 C554.093,475.246 556.739,479.371 558.233,483.816 C561.284,492.889 559.550,503.303 552.777,510.981 L518.070,550.329 ZM549.254,473.150 L509.905,438.440 C504.689,433.839 497.994,431.543 491.052,431.978 C484.112,432.412 477.755,435.525 473.155,440.740 L438.446,480.088 C433.846,485.303 431.551,491.999 431.986,498.941 C432.131,501.259 432.575,503.511 433.296,505.655 C434.734,509.932 437.274,513.776 440.749,516.840 L480.097,551.551 C485.311,556.152 492.007,558.447 498.948,558.012 C505.890,557.577 512.245,554.465 516.846,549.250 L551.555,509.903 C561.051,499.135 560.017,482.650 549.254,473.150 ZM520.921,542.400 C517.054,547.838 511.300,551.446 504.720,552.556 C498.140,553.668 491.521,552.149 486.083,548.282 L447.599,520.915 C442.161,517.047 438.556,511.293 437.441,504.713 C436.331,498.132 437.849,491.513 441.715,486.075 L469.080,447.591 C472.947,442.152 478.700,438.545 485.280,437.434 C491.860,436.323 498.480,437.841 503.918,441.709 L542.402,469.075 C546.859,472.245 549.964,476.619 551.586,481.445 C554.051,488.775 553.098,497.146 548.285,503.915 L520.921,542.400 ZM541.458,470.404 L502.974,443.038 C497.890,439.423 491.703,438.004 485.553,439.043 C479.402,440.081 474.024,443.451 470.409,448.535 L443.044,487.019 C439.430,492.104 438.011,498.291 439.050,504.441 C439.258,505.676 439.560,506.880 439.952,508.044 C441.511,512.681 444.481,516.697 448.543,519.586 L487.027,546.952 C492.111,550.567 498.299,551.987 504.448,550.948 C510.598,549.910 515.977,546.539 519.591,541.454 L546.955,502.971 C554.419,492.475 551.949,477.868 541.458,470.404 ZM522.731,535.027 C516.619,545.866 502.830,549.712 491.990,543.601 L454.970,522.726 C449.721,519.765 445.933,514.937 444.318,509.130 C442.697,503.323 443.436,497.234 446.397,491.984 L467.270,454.963 C473.381,444.124 487.170,440.278 498.010,446.390 L535.030,467.265 C539.929,470.026 543.549,474.414 545.328,479.703 C545.456,480.085 545.575,480.470 545.683,480.860 C547.302,486.667 546.563,492.756 543.604,498.006 L522.731,535.027 ZM544.113,481.298 C542.612,475.907 539.099,471.432 534.229,468.685 L497.209,447.811 C492.337,445.063 486.689,444.378 481.301,445.881 C475.916,447.383 471.436,450.892 468.690,455.764 L447.817,492.785 C445.071,497.655 444.385,503.305 445.888,508.692 C445.989,509.053 446.099,509.411 446.217,509.765 C447.868,514.672 451.227,518.742 455.772,521.305 L492.792,542.181 C502.847,547.849 515.641,544.281 521.310,534.226 L542.183,497.206 C544.930,492.335 545.614,486.685 544.113,481.298 Z"/>
</svg>