<?xml version="1.0" encoding="utf-8"?>
<!-- Generator: Adobe Illustrator 15.0.0, SVG Export Plug-In . SVG Version: 6.00 Build 0)  -->
<!DOCTYPE svg PUBLIC "-//W3C//DTD SVG 1.1//EN" "http://www.w3.org/Graphics/SVG/1.1/DTD/svg11.dtd">
<svg version="1.1" xmlns="http://www.w3.org/2000/svg" xmlns:xlink="http://www.w3.org/1999/xlink" x="0px" y="0px" width="70.75px"
	 height="15.917px" viewBox="0 0 70.75 15.917" enable-background="new 0 0 70.75 15.917" xml:space="preserve">
<g id="Layer_1">
</g>
<g id="Layer_2">
</g>
<g id="Layer_3">
	<g>
		<g>
			<path fill="#FFFFFF" d="M64.109,4.874c0,0.222-0.147,1.231-0.443,1.231c-0.268,0-1.285-0.789-2.359-0.438
				c-0.604,0.198-0.996,0.952-0.494,1.368c0.901,0.747,2.729,0.836,2.729,2.679c0,2.688-2.996,3.463-5.18,2.848
				c-0.396-0.111-0.947-0.297-0.947-0.746c0-0.232,0.152-1.305,0.459-1.305c0.262,0,0.863,0.675,2.081,0.675
				c1.349,0,1.677-1.101,1.172-1.558c-0.877-0.793-2.665-0.821-2.665-2.679c0-2.788,3.416-3.416,5.27-2.562
				C63.989,4.507,64.109,4.58,64.109,4.874 M58.18,2.735c0,0.899-0.318,1.775-0.93,2.457c-0.273,0.307-1.424,1.667-1.661,1.815
				c-0.306,0.192-1.317,0.316-1.26-0.059c0.04-0.26,1.519-2.342,1.625-2.605c0.103-0.251,0.217-1.389,0.403-1.761
				c0.224-0.449,0.602-0.444,1.07-0.444C57.916,2.137,58.18,2.15,58.18,2.735z M51.107,8.266l1.389,3.854
				c0.197,0.592-0.809,0.502-1.189,0.502c-0.265,0-0.901,0.033-1.027-0.166c-0.1-0.158-0.873-2.496-1.004-2.871
				c-0.276,0.385-1.906,2.725-2.084,2.877c-0.256,0.222-1.91,0.218-2.207,0.059c-0.166-0.088-0.082-0.243,0.018-0.385l2.945-3.853
				l-1.293-3.576c-0.213-0.605,0.619-0.521,1.115-0.521c0.25,0,0.896-0.04,1.021,0.133c0.105,0.146,0.846,2.377,0.971,2.732
				c0.278-0.386,1.782-2.542,1.978-2.708c0.258-0.221,1.802-0.197,2.081-0.071c0.186,0.084,0.08,0.244-0.027,0.391L51.107,8.266z
				 M42.655,6.851c-0.89-1.385-2.392-1.258-3.15,0.364c-0.353,0.755-0.979,3.023-0.06,3.594c0.64,0.396,1.541-0.251,1.979-0.744
				C42.28,9.101,42.412,8.07,42.655,6.851z M43.738,12.287c-0.086,0.444-1.449,0.379-1.752,0.264
				c-0.135-0.051-0.174-0.129-0.148-0.264l0.242-1.244c-1.021,2.146-6.143,3.199-5.236-2.414c0.35-2.166,1.68-4.583,4.159-4.583
				c0.953,0,1.687,0.403,2.241,1.166c0.186-0.912,0.07-1.024,1.188-1.024c0.238,0,0.928-0.037,0.853,0.337L43.738,12.287z
				 M36.896,4.613c0,0.305-0.182,1.403-0.59,1.403h-1.688c-0.132,0.656-0.802,3.696-0.802,4.233c0,1.168,1.425,0.471,1.634,0.471
				c0.422,0-0.049,1.46-0.234,1.646c-0.405,0.404-2.973,0.848-3.528-0.67c-0.211-0.576-0.129-1.296-0.006-1.908l0.761-3.771
				c-1.021,0-1.161,0.12-1.161-0.358c0-0.327,0.128-1.418,0.583-1.418h0.932l0.35-1.731c0.105-0.51,1.717-0.396,2.004-0.271
				c0.131,0.057,0.203,0.137,0.174,0.271l-0.348,1.73h1.667C36.867,4.24,36.896,4.411,36.896,4.613z M30.879,1.94
				c-0.174,0.893-0.593,1.145-1.486,1.145c-0.885,0-1.216-0.238-1.03-1.145c0.179-0.876,0.606-1.146,1.492-1.146
				C30.756,0.795,31.045,1.044,30.879,1.94z M28.65,12.277c-0.101,0.479-1.675,0.381-2.01,0.262
				c-0.136-0.049-0.203-0.129-0.168-0.262l1.249-6.261h-3.478l-0.728,3.632c-0.12,0.59-0.182,1.27,0.616,1.27
				c0.768,0,1.261-0.646,1.074,0.451c-0.172,1.014-0.393,1.219-1.42,1.35c-0.955,0.121-2.1-0.037-2.466-1.021
				c-0.209-0.564-0.139-1.306-0.006-1.91l0.755-3.771c-1.014,0-1.155,0.12-1.155-0.358c0-0.324,0.129-1.418,0.581-1.418h0.929
				l0.35-1.731C22.876,2,24.485,2.112,24.778,2.236c0.135,0.057,0.196,0.137,0.168,0.272L24.601,4.24h5.002
				c0.454,0,0.614,0.183,0.53,0.607L28.65,12.277z M17.643,7.183c0-1.812-1.478-1.515-2.428-0.438
				c-0.49,0.556-0.85,1.292-0.994,2.042l-0.237,1.182c0.201,0.316,0.423,0.554,0.669,0.714c0.708,0.459,1.528,0.228,2.045-0.399
				C17.374,9.462,17.643,8.221,17.643,7.183z M12.912,15.339c-0.012,0.061-0.042,0.109-0.083,0.158
				c-0.044,0.043-0.109,0.086-0.201,0.115c-0.089,0.032-0.207,0.057-0.352,0.074s-0.323,0.027-0.539,0.027
				c-0.213,0-0.385-0.01-0.518-0.027c-0.133-0.018-0.24-0.042-0.317-0.074c-0.077-0.029-0.127-0.07-0.151-0.115
				c-0.024-0.049-0.03-0.099-0.018-0.158L12.9,4.524c0.088-0.447,1.428-0.382,1.747-0.255c0.123,0.05,0.179,0.128,0.154,0.255
				l-0.243,1.264c0.947-2.124,6.134-3.287,5.219,2.418c-0.35,2.178-1.648,4.559-4.145,4.559c-0.793,0-1.523-0.313-2.024-0.915
				L12.912,15.339z M8.588,5.315c0-1.485-0.659-2.3-2.202-2.3c-3.308,0-4.172,4.85-3.7,6.551c0.423,1.523,2.405,1.538,3.422,1.029
				C7.92,9.689,8.588,7.18,8.588,5.315z M11.004,5.102c0,2.987-1.303,6.209-4.313,7.31c-1.564,0.57-4.124,0.543-5.423-0.599
				c-1.275-1.122-1.236-3.043-0.974-4.66c0.552-3.4,2.729-6.003,6.394-6.003C9.345,1.15,11.004,2.325,11.004,5.102z"/>
		</g>
		<circle fill="none" stroke="#FFFFFF" stroke-width="0.5" stroke-miterlimit="10" cx="68.143" cy="2.541" r="2.275"/>
		<g>
			<path fill="#FFFFFF" d="M67.289,3.972V1.321h0.964c0.201,0,0.35,0.024,0.445,0.074c0.096,0.049,0.175,0.131,0.236,0.247
				c0.062,0.115,0.092,0.249,0.092,0.4c0,0.2-0.052,0.362-0.156,0.486s-0.256,0.203-0.455,0.237
				c0.081,0.048,0.143,0.098,0.185,0.147c0.086,0.101,0.161,0.214,0.227,0.338l0.38,0.722h-0.362l-0.29-0.551
				C68.441,3.205,68.357,3.06,68.3,2.985c-0.057-0.075-0.112-0.125-0.166-0.151s-0.129-0.039-0.225-0.039h-0.333v1.177H67.289z
				 M67.576,2.491h0.619c0.135,0,0.237-0.016,0.307-0.049c0.07-0.033,0.126-0.084,0.167-0.154s0.062-0.151,0.062-0.244
				c0-0.134-0.039-0.239-0.118-0.315c-0.078-0.077-0.194-0.115-0.349-0.115h-0.688V2.491z"/>
		</g>
	</g>
</g>
</svg>
